<?xml version="1.0" encoding="utf-8"?>
<!-- Generator: Adobe Illustrator 27.5.0, SVG Export Plug-In . SVG Version: 6.00 Build 0)  -->
<svg version="1.1" xmlns="http://www.w3.org/2000/svg" xmlns:xlink="http://www.w3.org/1999/xlink" x="0px" y="0px"
	 viewBox="0 0 500 500" style="enable-background:new 0 0 500 500;" xml:space="preserve">
<g id="BACKGROUND">
	<rect style="fill:#F4F4F4;" width="500" height="500"/>
</g>
<g id="OBJECTS">
	<g>
		<text transform="matrix(1 0 0 1 76.004 430.4789)"><tspan x="0" y="0" style="fill:#1D2B48; font-family:'Montserrat-Bold'; font-size:15.0664px;">COMPANY LOGO</tspan><tspan x="23.307" y="13.56" style="fill:#1D2B48; font-family:'Montserrat-Regular'; font-size:11.2998px;">YOUR TAGLINE</tspan></text>
		<g>
			<path style="fill-rule:evenodd;clip-rule:evenodd;fill:#B3EFE5;" d="M192.013,358.131c3.301,2.339,5.446,5.976,5.896,9.997
				c0.449,4.02-0.841,8.041-3.544,11.05c-11.233,12.43-27.477,20.246-45.531,20.246c-33.854,0-61.34-27.485-61.34-61.34
				c0-33.854,27.486-61.341,61.34-61.341c18.02,0,34.235,7.787,45.462,20.178c2.723,3.021,4.023,7.061,3.575,11.104
				c-0.448,4.041-2.603,7.7-5.921,10.05c-0.446,0.321-0.895,0.639-1.344,0.958c-5.858,4.151-13.891,3.294-18.741-2
				c-5.707-6.242-13.915-10.158-23.031-10.158c-17.225,0-31.208,13.983-31.208,31.208c0,17.225,13.984,31.208,31.208,31.208
				c9.132,0,17.352-3.931,23.061-10.19c4.825-5.278,12.826-6.136,18.662-2.002C191.044,357.443,191.53,357.788,192.013,358.131z"/>
			<g>
				<defs>
					<path id="SVGID_1_" d="M192.013,358.131c3.301,2.339,5.446,5.976,5.896,9.997c0.449,4.02-0.841,8.041-3.544,11.05
						c-11.233,12.43-27.477,20.246-45.531,20.246c-33.854,0-61.34-27.485-61.34-61.34c0-33.854,27.486-61.341,61.34-61.341
						c18.02,0,34.235,7.787,45.462,20.178c2.723,3.021,4.023,7.061,3.575,11.104c-0.448,4.041-2.603,7.7-5.921,10.05
						c-0.446,0.321-0.895,0.639-1.344,0.958c-5.858,4.151-13.891,3.294-18.741-2c-5.707-6.242-13.915-10.158-23.031-10.158
						c-17.225,0-31.208,13.983-31.208,31.208c0,17.225,13.984,31.208,31.208,31.208c9.132,0,17.352-3.931,23.061-10.19
						c4.825-5.278,12.826-6.136,18.662-2.002C191.044,357.443,191.53,357.788,192.013,358.131z"/>
				</defs>
				<clipPath id="SVGID_00000023975424553138658390000015391183307749498022_">
					<use xlink:href="#SVGID_1_"  style="overflow:visible;"/>
				</clipPath>
				
					<path style="clip-path:url(#SVGID_00000023975424553138658390000015391183307749498022_);fill-rule:evenodd;clip-rule:evenodd;fill:#1D2B48;" d="
					M122.373,334.309c-2.14,0.774-3.932,0.202-6.122,0.293c-2.945,0.121-5.935,0.548-8.887,0.121
					c-4.725-0.683-9.298-2.317-14.121-2.517c-4.162-0.171-8.46,0.859-11.744-2.727c-5.426-5.925-3.506-17.271-0.826-23.945
					c3.603-8.973,10.696-15.6,17.761-21.892c5.241-4.669,10.363-9.465,16.555-12.882c6.453-3.56,13.712-5.255,20.817-6.97
					c9.483-2.291,19.084-3.89,28.813-2.149c7.125,1.275,13.8,4.171,20.29,7.28c6.165,2.953,12.329,6.363,17.151,11.282
					c3.481,3.55,6.596,7.847,7.863,12.725c3.461,13.312-5.294,30.575-18.954,34.309c-6.988,1.91-15.323,1.455-22.125-0.995
					c-13.035-4.696-23.91-12.933-38.578-8.954C126.575,318.29,125.487,332.127,122.373,334.309z"/>
			</g>
			
				<ellipse transform="matrix(0.9224 -0.3862 0.3862 0.9224 -120.807 65.5686)" style="fill-rule:evenodd;clip-rule:evenodd;fill:#1D2B48;" cx="102.786" cy="333.453" rx="14.994" ry="14.994"/>
			<circle style="fill-rule:evenodd;clip-rule:evenodd;fill:#B3EFE5;" cx="148.74" cy="338.098" r="14.994"/>
		</g>
	</g>
	<g>
		<g>
			<polygon style="fill-rule:evenodd;clip-rule:evenodd;fill:#1D2B48;" points="393.435,257.618 393.957,297.141 322.729,348.489 
				320.633,310.445 			"/>
			<g>
				<defs>
					<polygon id="SVGID_00000074409935728183615280000002765078636584273822_" points="393.435,257.618 393.957,297.141 
						320.34,350.11 320.633,310.445 					"/>
				</defs>
				<clipPath id="SVGID_00000096768716866140688120000006610469227278066561_">
					<use xlink:href="#SVGID_00000074409935728183615280000002765078636584273822_"  style="overflow:visible;"/>
				</clipPath>
				
					<polygon style="clip-path:url(#SVGID_00000096768716866140688120000006610469227278066561_);fill-rule:evenodd;clip-rule:evenodd;fill:#0B131D;" points="
					393.206,399.044 393.728,359.521 320.111,306.552 323.12,346.337 				"/>
			</g>
			<polygon style="fill-rule:evenodd;clip-rule:evenodd;fill:#B3EFE5;" points="393.66,402.858 394.182,363.335 320.565,310.366 
				320.311,350.165 			"/>
			<polygon style="fill-rule:evenodd;clip-rule:evenodd;fill:#B3EFE5;" points="366.34,330.324 394.177,310.542 394.195,350.082 			
				"/>
		</g>
		<text transform="matrix(1 0 0 1 290.5099 430.4789)"><tspan x="0" y="0" style="fill:#1D2B48; font-family:'Montserrat-Bold'; font-size:15.0664px;">COMPANY LOGO</tspan><tspan x="23.308" y="13.56" style="fill:#1D2B48; font-family:'Montserrat-Regular'; font-size:11.2998px;">YOUR TAGLINE</tspan></text>
	</g>
	<g>
		<path style="fill-rule:evenodd;clip-rule:evenodd;fill:#1D2B48;" d="M178.3,100.896l15.684-11.112l-15.851-4.134L178.3,100.896z
			 M178.69,148.586l15.714-5.01l-16.211-11.485L178.69,148.586z M173.083,83.347c-3.144-3.337-15.376-14.06-38.58-8.495
			c-28.021,6.722-45.562,47.037-19.817,71.691c26.58,25.454,55.464,6.331,59.03,3.795l-0.44-14.594
			c-6.069,8.669-16.131,14.343-27.508,14.343c-18.52,0-33.555-15.035-33.555-33.556c0-18.52,15.035-33.555,33.555-33.555
			c11.352,0,21.393,5.648,27.467,14.284L173.083,83.347z M194.949,84.844c-10.423-16.133-28.563-26.821-49.18-26.821
			c-32.291,0-58.507,26.216-58.507,58.507c0,32.292,26.216,58.508,58.507,58.508c20.371,0,38.322-10.434,48.803-26.244
			l-18.173,5.794c-5.138,3.56-36.382,23.167-65.187-4.418c-28.797-27.577-9.223-72.685,22.12-80.203
			c26.282-6.304,40.066,6.227,43.656,10.191L194.949,84.844z M202.25,145.628l1.002-1.94l-29.446-20.864l-1.103,3.145
			c-3.9,11.115-14.492,19.094-26.934,19.094c-15.748,0-28.533-12.785-28.533-28.534c0-15.748,12.785-28.533,28.533-28.533
			c12.442,0,23.034,7.98,26.934,19.095l1.103,3.145l29.446-20.864l-1.002-1.94C191.687,66.987,170.348,53,145.769,53
			c-35.063,0-63.53,28.467-63.53,63.53c0,35.064,28.467,63.531,63.53,63.531C170.348,180.062,191.687,166.075,202.25,145.628z"/>
		<text transform="matrix(1 0 0 1 76.0035 210.4442)"><tspan x="0" y="0" style="fill:#1D2B48; font-family:'Montserrat-Bold'; font-size:15.0664px;">COMPANY LOGO</tspan><tspan x="23.307" y="13.56" style="fill:#1D2B48; font-family:'Montserrat-Regular'; font-size:11.2998px;">YOUR TAGLINE</tspan></text>
	</g>
	
</g>
</svg>
