<svg width="130" height="50" viewBox="0 0 130 50" fill="none" xmlns="http://www.w3.org/2000/svg">
<path d="M20.3 23.4999H19V21.4999L20.4 21.3999L20.7 18.8999H23V21.3999H25.3V23.5999H23.1V27.3999C23.1 28.4999 23.6 28.8999 24.3 28.8999C24.6 28.8999 24.9 28.7999 25.2 28.6999L25.6 30.6999C25 30.8999 24.3 30.9999 23.5 30.9999C21.2 30.9999 20.2 29.4999 20.2 27.2999L20.3 23.4999Z" fill="black"/>
<path d="M30.4 21.1001C33.1 21.1001 34.4 23.1001 34.4 25.6001C34.4 26.0001 34.4 26.4001 34.3 26.8001H28.7C28.9 28.2001 29.9 28.9001 31.2 28.9001C31.9 28.9001 32.6 28.7001 33.2 28.3001L34.1 30.0001C33.1 30.7001 31.9 31.0001 30.8 31.1001C28.1 31.0001 26 29.2001 26 26.1001C26 23.0001 28.2 21.1001 30.4 21.1001ZM32.1 25.1001C32.1 24.0001 31.6 23.3001 30.5 23.3001C29.6 23.3001 28.9 23.9001 28.7 25.1001H32.1Z" fill="black"/>
<path d="M35.8999 21.4H38.1999L38.3999 22.6H38.4999C39.2999 21.8 40.1999 21.2 41.4999 21.2C43.5999 21.2 44.3999 22.6 44.3999 25V30.9H41.5999V25.4C41.5999 24 41.1999 23.6 40.3999 23.6C39.6999 23.6 39.2999 23.9 38.6999 24.5V30.9H35.8999V21.4Z" fill="black"/>
<path d="M46.6999 23.4999H45.3999V21.4999L46.7999 21.3999L47.0999 18.8999H49.3999V21.3999H51.6999V23.5999H49.3999V27.3999C49.3999 28.4999 49.8999 28.8999 50.5999 28.8999C50.8999 28.8999 51.1999 28.7999 51.4999 28.6999L51.8999 30.6999C51.1999 30.8999 50.4999 30.9999 49.7999 30.9999C47.4999 30.9999 46.4999 29.4999 46.4999 27.2999L46.6999 23.4999Z" fill="black"/>
<path d="M52.3 21.3999H55.1L56 25.7999C56.2 26.6999 56.3001 27.5999 56.4001 28.5999H56.5C56.7 27.5999 56.8 26.6999 57.1 25.7999L58.1 21.3999H60.5L61.6 25.7999C61.8 26.6999 62.0001 27.5999 62.2001 28.5999H62.3C62.5 27.5999 62.6001 26.6999 62.7001 25.7999L63.6 21.3999H66.2001L63.9001 30.7999H60.6L59.8 26.9999C59.6 26.0999 59.5 25.2999 59.3 24.1999H59.2001C59.0001 25.1999 58.9001 26.0999 58.7001 26.9999L57.9001 30.7999H54.7001L52.3 21.3999Z" fill="black"/>
<path d="M71.2 21.1001C73.9 21.1001 75.2 23.1001 75.2 25.6001C75.2 26.0001 75.1999 26.4001 75.0999 26.8001H69.4C69.6 28.2001 70.6 28.9001 71.9 28.9001C72.6 28.9001 73.3 28.7001 73.9 28.3001L74.7999 30.0001C73.7999 30.7001 72.6 31.0001 71.5 31.1001C68.8 31.1001 66.7 29.3001 66.7 26.2001C66.7 23.0001 68.9 21.1001 71.2 21.1001ZM72.7999 25.1001C72.7999 24.0001 72.3 23.3001 71.2 23.3001C70.3 23.3001 69.6 23.9001 69.4 25.1001H72.7999Z" fill="black"/>
<path d="M76.6001 21.4H78.9001L79.1001 22.6H79.2001C80.0001 21.8 80.9001 21.2 82.2001 21.2C84.3001 21.2 85.1001 22.6 85.1001 25V30.9H82.3001V25.4C82.3001 24 81.9001 23.6 81.1001 23.6C80.4001 23.6 80.0001 23.9 79.4001 24.5V30.9H76.6001V21.4Z" fill="black"/>
<path d="M87.4001 23.4999H86.1001V21.4999L87.5001 21.3999L87.8001 18.8999H90.1001V21.3999H92.4001V23.5999H90.1001V27.3999C90.1001 28.4999 90.6001 28.8999 91.3001 28.8999C91.6001 28.8999 91.9001 28.7999 92.2001 28.6999L92.6001 30.6999C91.9001 30.8999 91.2001 30.9999 90.5001 30.9999C88.2001 30.9999 87.2001 29.4999 87.2001 27.2999L87.4001 23.4999Z" fill="black"/>
<path d="M94.6999 32.2999C95.5999 32.2999 96.0999 31.7999 96.3999 31.0999L96.4999 30.5999L92.8999 21.3999H95.6999L97.0999 25.4999C97.3999 26.3999 97.5999 27.1999 97.7999 28.1999H97.8999C98.0999 27.2999 98.2999 26.3999 98.4999 25.4999L99.5999 21.3999H102.3L98.9999 30.8999C98.0999 33.2999 97.0999 34.4999 94.8999 34.4999C94.3999 34.4999 93.9999 34.3999 93.5999 34.2999L94.0999 32.1999C94.2999 32.1999 94.4999 32.2999 94.6999 32.2999Z" fill="black"/>
<path d="M104.4 22.3L105.7 19.9L103.2 18.8L103.8 17.1L106.4 17.7L106.7 15H108.5L108.8 17.7L111.4 17.1L111.9 18.8L109.5 19.9L110.8 22.3L109.4 23.3L107.6 21.3L105.7 23.3L104.4 22.3Z" fill="#1D5CE5"/>
</svg>
