<svg width="130" height="50" viewBox="0 0 130 50" fill="none" xmlns="http://www.w3.org/2000/svg">
<mask id="mask0_10_123" style="mask-type:luminance" maskUnits="userSpaceOnUse" x="9" y="14" width="112" height="22">
<path d="M120.74 14.095H9.91162V35.2614H120.74V14.095Z" fill="white"/>
</mask>
<g mask="url(#mask0_10_123)">
<path fill-rule="evenodd" clip-rule="evenodd" d="M71.2404 15.8046C71.7483 15.2406 72.3539 14.799 73.0209 14.5068C73.6878 14.2147 74.4017 14.0783 75.1175 14.1061H75.1931C75.9467 14.0863 76.6945 14.2497 77.3856 14.5849C78.0766 14.9201 78.694 15.4191 79.1947 16.0472C80.0715 17.2144 80.5455 18.6935 80.5298 20.2167V20.2908C80.5468 21.9386 79.9926 23.5301 78.9834 24.733C78.4723 25.2847 77.8667 25.7148 77.2024 25.9973C76.5374 26.2798 75.8287 26.4088 75.1181 26.3765C74.4023 26.4109 73.6865 26.2832 73.0156 26.0013C72.3442 25.7194 71.7313 25.289 71.2131 24.7359C70.2012 23.5425 69.6533 21.9511 69.6892 20.3087C69.6639 18.6411 70.2194 17.0276 71.2385 15.8074L71.2404 15.8046ZM75.1898 16.4798H75.1181H75.0099C74.5646 16.4723 74.1239 16.5786 73.721 16.7906C73.3181 17.0026 72.9641 17.3146 72.6864 17.7028C72.2027 18.4288 71.9478 19.3124 71.9595 20.2167V20.3325C71.9517 21.3265 72.2744 22.2884 72.8651 23.0328C73.485 23.6473 74.2856 23.9861 75.1155 23.9848C75.9448 23.9836 76.7447 23.6423 77.3627 23.0258C77.9514 22.2779 78.2696 21.3125 78.2552 20.3174V20.2364C78.2702 19.3249 78.0173 18.4332 77.5342 17.6976C77.2545 17.306 76.8973 16.9921 76.4905 16.7808C76.0836 16.5694 75.6384 16.4664 75.1898 16.4798Z" fill="#242F80"/>
<path fill-rule="evenodd" clip-rule="evenodd" d="M49.838 15.8046C50.3457 15.2406 50.9518 14.799 51.6187 14.5068C52.2856 14.2147 52.9992 14.0783 53.7152 14.1061H53.7915C54.5446 14.0864 55.2927 14.2498 55.9835 14.585C56.6744 14.9202 57.2916 15.4192 57.7923 16.0472C58.6696 17.2144 59.1433 18.6935 59.1273 20.2167V20.2908C59.1448 21.9386 58.5907 23.5301 57.581 24.733C57.0701 25.2847 56.4642 25.7148 55.7998 25.9973C55.1355 26.2798 54.4266 26.4088 53.7162 26.3765C53 26.4106 52.285 26.2828 51.6142 26.0009C50.9434 25.719 50.3305 25.2887 49.8126 24.7359C48.8007 23.5424 48.2529 21.951 48.2885 20.3087C48.2635 18.6412 48.8189 17.0277 49.838 15.8074V15.8046ZM53.7879 16.4798H53.7157H53.6078C53.1625 16.4723 52.7217 16.5786 52.319 16.7906C51.9164 17.0026 51.5626 17.3147 51.2847 17.7028C50.8012 18.4288 50.5458 19.3124 50.558 20.2167V20.3325C50.5503 21.3265 50.8728 22.2884 51.4633 23.0328C52.0833 23.6473 52.8842 23.9861 53.7135 23.9848C54.5429 23.9836 55.3429 23.6423 55.9614 23.0258C56.5501 22.2781 56.8682 21.3125 56.8537 20.3174V20.2364C56.8686 19.3249 56.6153 18.4332 56.1327 17.6976C55.8531 17.3059 55.4957 16.992 55.0888 16.7807C54.6819 16.5694 54.2365 16.4664 53.7879 16.4798Z" fill="#242F80"/>
<path fill-rule="evenodd" clip-rule="evenodd" d="M33.0184 16.652H30.18V20.4665H33.0184C33.3574 20.489 33.6942 20.3936 33.9825 20.1934C34.2707 19.9932 34.4962 19.6981 34.6276 19.3489C34.7186 19.0993 34.7651 18.8324 34.7647 18.5631C34.7653 18.2932 34.7186 18.0259 34.6271 17.7761C34.4963 17.4258 34.2712 17.1295 33.983 16.9282C33.6947 16.7268 33.358 16.6303 33.0184 16.652ZM29.6624 14.0988C30.7811 14.0942 31.9003 14.0907 33.0184 14.1023C33.8131 14.0518 34.6025 14.276 35.2788 14.7444C35.9551 15.2127 36.4855 15.9023 36.7975 16.7192C37.0105 17.2901 37.1199 17.9024 37.1193 18.5208C37.1202 19.1392 37.0107 19.7516 36.7975 20.3223C36.4849 21.1385 35.9541 21.8271 35.2777 22.2943C34.6013 22.7615 33.8121 22.9845 33.0179 22.9329H30.18V26.4382H27.8025V14.1035H27.9842C28.7675 14.1035 29.215 14.1035 29.6624 14.1006V14.0988ZM44.7771 22.1332L48.113 26.3669V26.4382H45.1971L45.1421 26.3681L42.0846 22.4551H40.411V26.4382H38.0335V14.1035H38.2157L39.9085 14.1081C41.0365 14.1116 42.1661 14.115 43.2941 14.104C44.3498 14.0658 45.3793 14.4758 46.1746 15.2512C46.5425 15.6369 46.8344 16.1038 47.0315 16.6223C47.2287 17.1408 47.3269 17.6994 47.3198 18.2625C47.3459 19.2057 47.0825 20.1306 46.5733 20.8841C46.1104 21.5065 45.4794 21.945 44.7746 22.1343L44.7771 22.1332ZM44.4875 17.0609C44.158 16.7408 43.7299 16.576 43.2935 16.6011H40.411V20.0241H43.2956C43.7316 20.0496 44.1594 19.8858 44.4896 19.5672C44.7809 19.2307 44.9434 18.781 44.9427 18.3132C44.942 17.8455 44.7782 17.3963 44.4859 17.0609H44.4875ZM65.1915 26.4382H62.9956V16.5501H59.6085V14.1017H68.7608V16.5501H65.3732V26.4382H65.1915ZM86.6448 26.4382H84.4504V16.5501H81.0636V14.1017H90.2122V16.5501H86.8254V26.4382H86.6448ZM93.7326 14.1035H93.8363L93.8878 14.2002L96.4518 18.852L99.1332 14.1967L99.1847 14.1035H102.04V14.2256L97.6383 21.3716V26.4382H95.2601V21.3682L91.0747 14.3258L91.0708 14.1017L93.7326 14.1035ZM107.7 16.6196H102.591V14.1017H111.163V15.3601L111.13 15.4759L105.794 23.9046H111.163V26.4382H102.454V24.9412L102.487 24.8254L107.7 16.6196H107.7ZM114.714 23.8195H120.71V26.4382H112.352V14.1035H120.71V16.6862H114.714V19.0368H120.496V21.5367H114.714V23.8195Z" fill="#242F80"/>
<path fill-rule="evenodd" clip-rule="evenodd" d="M9.91162 14.1008H25.2086V32.9828H22.9432L22.924 18.3242L16.0116 18.3369L21.7809 19.5918V30.0635L17.0052 31.6196V21.1745L20.1967 20.5316L16.0059 20.5392V30.0693H14.4849V17.0247L22.9645 16.0194H12.7932V35.1184H9.91162V14.1008ZM18.3164 25.4308C18.2398 25.4308 18.1649 25.4562 18.1012 25.5036C18.0375 25.5511 17.9879 25.6186 17.9586 25.6976C17.9293 25.7766 17.9217 25.8635 17.9367 25.9473C17.9517 26.0311 17.9886 26.1081 18.0428 26.1684C18.097 26.2289 18.1661 26.27 18.2412 26.2866C18.3163 26.3031 18.3943 26.2946 18.465 26.2618C18.5357 26.229 18.5962 26.1735 18.6387 26.1024C18.6812 26.0313 18.7038 25.9476 18.7037 25.8622C18.7035 25.7477 18.6627 25.638 18.5901 25.5571C18.5175 25.4762 18.419 25.4308 18.3164 25.4308Z" fill="#0075BD"/>
<path fill-rule="evenodd" clip-rule="evenodd" d="M62.978 35.0958V30.8742H63.5921V35.0958H62.978ZM65.6509 34.4756H66.17C66.3847 34.4833 66.5995 34.4621 66.8096 34.4125C66.9463 34.3735 67.0734 34.3004 67.1812 34.1988C67.3251 34.0614 67.436 33.886 67.5036 33.6886C67.6469 33.2304 67.6469 32.7315 67.5036 32.2734C67.436 32.076 67.3251 31.9006 67.1812 31.7632C67.0696 31.6604 66.9383 31.5873 66.7976 31.5494C66.5669 31.499 66.3318 31.4779 66.0968 31.4863H65.6519V34.4756H65.6509ZM65.0358 35.0958V30.8742H65.8664C66.2488 30.8596 66.6316 30.8899 67.0083 30.9646C67.218 31.0199 67.415 31.1235 67.5867 31.2686C67.8058 31.4558 67.9774 31.7035 68.0845 31.9872C68.2017 32.3046 68.2595 32.6454 68.2542 32.9885C68.2598 33.33 68.202 33.6691 68.0845 33.9846C67.9764 34.2675 67.805 34.5148 67.5867 34.7026C67.4183 34.8456 67.2259 34.9492 67.0209 35.0072C66.6962 35.0788 66.3653 35.1091 66.0346 35.0976H65.0358V35.0958ZM69.5146 35.0958V30.8742H71.6276V31.4585H70.1287V32.516H71.6283V33.1182H70.1297V34.4832H71.6283V35.0958H69.5146ZM73.691 33.4361H74.7465L74.3586 32.4731C74.3364 32.4118 74.3129 32.3411 74.2888 32.2611C74.2647 32.1812 74.2399 32.0926 74.2165 31.9948C74.1956 32.0869 74.1741 32.1726 74.15 32.2525C74.1265 32.3324 74.103 32.4059 74.0795 32.4731L73.691 33.4361ZM75.3925 35.0958L74.9636 34.0088H73.4635L73.0241 35.0958H72.378L74.2112 30.7063L76.0425 35.0958H75.3925ZM76.742 34.2498L77.2329 33.9967C77.2701 34.1696 77.3607 34.3221 77.4898 34.427C77.63 34.5319 77.7969 34.584 77.9657 34.5758C78.1254 34.5847 78.2819 34.5236 78.4019 34.4056C78.4566 34.3469 78.499 34.276 78.527 34.1976C78.5544 34.1192 78.5675 34.0352 78.5635 33.951C78.5635 33.7027 78.3791 33.4815 78.0094 33.2873C77.9572 33.2584 77.9181 33.2369 77.8901 33.2242C77.5798 33.0792 77.2968 32.8702 77.0563 32.608C76.9161 32.4189 76.8424 32.1796 76.8483 31.9345C76.8431 31.778 76.8685 31.6221 76.9233 31.4776C76.9774 31.3331 77.0589 31.2035 77.1625 31.0978C77.3901 30.8768 77.6854 30.7622 77.9872 30.7775C78.2304 30.7682 78.4723 30.8302 78.6874 30.9576C78.8706 31.0706 79.0088 31.2547 79.0773 31.4747L78.5981 31.7521C78.5355 31.6352 78.4501 31.536 78.3478 31.4626C78.2539 31.3998 78.1457 31.3676 78.0361 31.3699C77.8934 31.3612 77.7525 31.4129 77.6417 31.5147C77.5928 31.5628 77.5544 31.6224 77.5289 31.6893C77.5035 31.7561 77.4918 31.8284 77.495 31.901C77.495 32.1546 77.7095 32.392 78.1372 32.6104C78.1704 32.6283 78.1959 32.6422 78.2154 32.6509C78.5036 32.7788 78.7656 32.9707 78.9854 33.215C79.1275 33.4086 79.2011 33.6534 79.1933 33.9035C79.2011 34.08 79.1744 34.2563 79.1164 34.4206C79.0577 34.5849 78.9684 34.7334 78.8543 34.856C78.602 35.1026 78.2734 35.2296 77.9383 35.2099C77.6574 35.2232 77.3796 35.1361 77.1462 34.9615C76.9363 34.7897 76.7916 34.5363 76.7414 34.2515L76.742 34.2498ZM83.9309 31.4568V35.0958H83.3168V31.4568H82.3109V30.8742H84.9323V31.4585L83.9309 31.4568ZM89.0134 32.9931C89.0147 32.7847 88.9795 32.5779 88.9097 32.3845C88.8406 32.1931 88.7383 32.0189 88.6085 31.8715C88.4827 31.7246 88.3315 31.6078 88.1646 31.5281C87.997 31.4485 87.8164 31.4077 87.6346 31.4082C87.452 31.4064 87.2708 31.4457 87.1026 31.524C86.9337 31.603 86.7805 31.7199 86.654 31.8674C86.5243 32.0134 86.422 32.1868 86.3542 32.3776C86.2844 32.572 86.2492 32.7797 86.2498 32.9891C86.2492 33.1964 86.2844 33.4019 86.3542 33.5942C86.4233 33.7844 86.525 33.9575 86.654 34.1038C86.7805 34.2515 86.9324 34.3688 87.1013 34.4485C87.2701 34.5281 87.4514 34.5686 87.6346 34.5671C87.8151 34.5687 87.9938 34.5293 88.16 34.4513C88.3289 34.3712 88.4814 34.2542 88.6085 34.1073C88.8706 33.8099 89.0167 33.4093 89.0147 32.9926L89.0134 32.9931ZM89.6542 32.9931C89.6562 33.285 89.604 33.5742 89.5023 33.843C89.4006 34.1118 89.2507 34.3546 89.0623 34.5567C88.8726 34.7632 88.6483 34.9267 88.4032 35.0385C88.0335 35.207 87.628 35.2511 87.2362 35.1655C86.8444 35.0799 86.4839 34.8683 86.1983 34.5567C86.0099 34.355 85.86 34.1125 85.7589 33.8438C85.6051 33.4371 85.5647 32.988 85.6429 32.5552C85.7218 32.1224 85.9154 31.7262 86.1983 31.418C86.3868 31.2118 86.6104 31.0491 86.8555 30.9397C87.3542 30.7204 87.909 30.7204 88.4071 30.9397C88.6516 31.0497 88.8745 31.2124 89.0623 31.4185C89.2507 31.6246 89.4 31.87 89.503 32.1407C89.604 32.4099 89.6555 32.699 89.6542 32.9908V32.9931ZM93.8071 32.6561H94.0424C94.2569 32.6754 94.472 32.6291 94.665 32.5223C94.7276 32.471 94.7778 32.4026 94.8091 32.3235C94.841 32.2444 94.8541 32.1575 94.8469 32.0712C94.8554 31.9811 94.8449 31.8899 94.8156 31.8054C94.7869 31.7207 94.74 31.6451 94.6793 31.5848C94.4838 31.4704 94.2634 31.4219 94.0437 31.4452H93.8084V32.6561H93.8071ZM93.8071 34.5225H94.0196C94.1806 34.5259 94.3423 34.5163 94.5027 34.4942C94.5926 34.4814 94.6794 34.4467 94.7563 34.3928C94.8319 34.3375 94.8925 34.2597 94.9316 34.1681C94.974 34.071 94.9949 33.964 94.9936 33.856C94.9962 33.7336 94.9701 33.6124 94.9186 33.5045C94.8691 33.4055 94.7941 33.325 94.7041 33.2728C94.6409 33.2378 94.5731 33.2132 94.504 33.1999C94.4049 33.1829 94.3051 33.1753 94.2047 33.1773H93.8071V34.5225ZM93.204 35.0958V30.8742H94.1585C94.3606 30.8678 94.5633 30.8841 94.7621 30.9229C94.8821 30.9504 94.9955 31.0054 95.0953 31.0844C95.2133 31.1824 95.3072 31.3126 95.3678 31.4626C95.4336 31.6247 95.4669 31.8011 95.4649 31.9792C95.4714 32.1789 95.4226 32.376 95.3248 32.5438C95.227 32.6988 95.0836 32.8107 94.9193 32.86C95.0216 32.8746 95.1207 32.9119 95.2094 32.9697C95.2987 33.0275 95.3769 33.1046 95.4389 33.1964C95.5705 33.4002 95.637 33.6472 95.6286 33.8982C95.6292 34.0648 95.6018 34.2299 95.5484 34.3853C95.4988 34.5328 95.4219 34.6666 95.3215 34.7773C95.2146 34.8964 95.0816 34.9821 94.9356 35.0257C94.682 35.0844 94.4225 35.1086 94.163 35.0976L93.204 35.0958ZM96.8001 30.8742H97.409V33.4384C97.3875 33.7475 97.4722 34.0539 97.6456 34.2961C97.8432 34.4816 98.0929 34.5832 98.3517 34.5832C98.6099 34.5832 98.8596 34.4816 99.0571 34.2961C99.2305 34.0537 99.3152 33.7474 99.2937 33.4384V30.8742H99.9079V33.5016C99.9242 33.7335 99.8987 33.9667 99.8316 34.1872C99.7651 34.4076 99.6595 34.6107 99.5206 34.7843C99.1816 35.0607 98.7722 35.2096 98.3523 35.2096C97.9325 35.2096 97.5237 35.0607 97.1847 34.7843C97.0459 34.6102 96.9409 34.4067 96.8744 34.1862C96.8079 33.9656 96.7825 33.7323 96.7988 33.5004V30.8742H96.8001ZM101.098 34.2515L101.589 33.9984C101.627 34.1716 101.719 34.3241 101.849 34.4287C101.989 34.5335 102.156 34.5856 102.324 34.5775C102.484 34.5866 102.641 34.5255 102.761 34.4072C102.815 34.3486 102.858 34.2776 102.886 34.1993C102.913 34.1209 102.926 34.0369 102.922 33.9527C102.922 33.7045 102.738 33.4832 102.368 33.2891C102.316 33.2601 102.276 33.2387 102.25 33.2259C101.939 33.081 101.656 32.8719 101.415 32.6098C101.276 32.4206 101.201 32.1814 101.207 31.9363C101.202 31.78 101.227 31.6242 101.281 31.4798C101.334 31.3352 101.416 31.2055 101.519 31.0995C101.746 30.8785 102.042 30.7639 102.343 30.7792C102.587 30.7699 102.829 30.832 103.044 30.9594C103.226 31.0725 103.365 31.2566 103.434 31.4765L102.954 31.7539C102.892 31.637 102.806 31.5378 102.704 31.4643C102.61 31.4016 102.502 31.3694 102.392 31.3717C102.25 31.363 102.109 31.4147 101.998 31.5164C101.949 31.5646 101.911 31.6242 101.885 31.691C101.86 31.7579 101.848 31.8302 101.851 31.9027C101.851 32.1563 102.066 32.3938 102.494 32.6121C102.527 32.63 102.552 32.644 102.572 32.6526C102.86 32.7806 103.122 32.9725 103.342 33.2166C103.484 33.4105 103.557 33.6552 103.55 33.9052C103.557 34.0818 103.531 34.2581 103.473 34.4224C103.414 34.5867 103.325 34.7351 103.211 34.8578C102.958 35.1044 102.63 35.2313 102.295 35.2116C102.014 35.2248 101.736 35.1378 101.502 34.9632C101.292 34.7913 101.148 34.538 101.098 34.2532L101.098 34.2515ZM104.792 35.0976V30.8742H105.406V35.0958L104.792 35.0976ZM106.851 35.0976V30.7063L109.256 33.2873C109.322 33.3597 109.388 33.4379 109.455 33.519C109.523 33.6 109.593 33.6927 109.668 33.7987V30.8742H110.234V35.2626L107.781 32.6341C107.717 32.5623 107.653 32.4876 107.592 32.4088C107.531 32.3301 107.472 32.2472 107.417 32.1604V35.0958L106.851 35.0976ZM111.663 35.0976V30.8742H113.776V31.4585H112.277V32.516H113.776V33.1182H112.277V34.4832H113.776V35.0958L111.663 35.0976ZM114.823 34.2515L115.314 33.9984C115.352 34.1716 115.443 34.3241 115.573 34.4287C115.713 34.5335 115.88 34.5856 116.048 34.5775C116.209 34.5866 116.365 34.5255 116.486 34.4072C116.54 34.3486 116.582 34.2776 116.61 34.1993C116.638 34.1209 116.651 34.0369 116.647 33.9527C116.647 33.7045 116.462 33.4832 116.093 33.2891C116.041 33.2601 116.001 33.2387 115.974 33.2259C115.664 33.0811 115.38 32.872 115.14 32.6098C114.999 32.4207 114.926 32.1814 114.932 31.9363C114.926 31.78 114.952 31.6242 115.005 31.4798C115.059 31.3352 115.14 31.2055 115.243 31.0995C115.471 30.8785 115.766 30.7639 116.068 30.7792C116.312 30.7699 116.553 30.832 116.769 30.9594C116.951 31.0725 117.09 31.2566 117.159 31.4765L116.679 31.7539C116.617 31.6371 116.531 31.538 116.429 31.4643C116.335 31.4016 116.226 31.3695 116.117 31.3717C115.974 31.3631 115.833 31.4148 115.723 31.5164C115.674 31.5646 115.636 31.6242 115.61 31.691C115.585 31.7579 115.573 31.8302 115.576 31.9027C115.576 32.1563 115.791 32.3938 116.219 32.6121C116.252 32.63 116.277 32.644 116.297 32.6526C116.585 32.7807 116.847 32.9726 117.067 33.2166C117.209 33.4104 117.283 33.6552 117.275 33.9052C117.283 34.0818 117.256 34.2581 117.198 34.4224C117.139 34.5867 117.05 34.7351 116.936 34.8578C116.683 35.1044 116.355 35.2313 116.02 35.2116C115.738 35.2248 115.461 35.1378 115.227 34.9632C115.017 34.7913 114.873 34.538 114.823 34.2532V34.2515ZM118.288 34.2515L118.779 33.9984C118.817 34.1716 118.909 34.3241 119.039 34.4287C119.179 34.5335 119.345 34.5856 119.514 34.5775C119.674 34.5866 119.831 34.5255 119.952 34.4072C120.006 34.3486 120.048 34.2776 120.075 34.1993C120.103 34.1209 120.117 34.0369 120.113 33.9527C120.113 33.7045 119.928 33.4832 119.558 33.2891C119.506 33.2601 119.467 33.2387 119.439 33.2259C119.129 33.0811 118.846 32.872 118.605 32.6098C118.465 32.4207 118.391 32.1814 118.397 31.9363C118.393 31.7798 118.418 31.6238 118.472 31.4793C118.526 31.3349 118.608 31.2053 118.712 31.0995C118.939 30.8785 119.234 30.7639 119.536 30.7792C119.779 30.7699 120.021 30.832 120.237 30.9594C120.419 31.0725 120.558 31.2566 120.627 31.4765L120.147 31.7539C120.085 31.6372 119.999 31.5382 119.897 31.4643C119.803 31.4016 119.695 31.3695 119.585 31.3717C119.442 31.363 119.302 31.4147 119.191 31.5164C119.143 31.5647 119.104 31.6243 119.079 31.6912C119.053 31.758 119.041 31.8302 119.045 31.9027C119.045 32.1563 119.259 32.3938 119.687 32.6121C119.719 32.63 119.745 32.644 119.765 32.6526C120.053 32.7806 120.315 32.9725 120.535 33.2166C120.677 33.4105 120.751 33.6552 120.743 33.9052C120.75 34.0818 120.724 34.2581 120.665 34.4224C120.607 34.5867 120.518 34.7351 120.404 34.8578C120.152 35.1044 119.822 35.2313 119.488 35.2116C119.206 35.2249 118.929 35.1379 118.695 34.9632C118.484 34.7911 118.339 34.5363 118.288 34.2498V34.2515Z" fill="#242F80"/>
</g>
</svg>
