<svg width="130" height="50" viewBox="0 0 130 50" fill="none" xmlns="http://www.w3.org/2000/svg">
<path fill-rule="evenodd" clip-rule="evenodd" d="M55.7156 45.09V44.88L55.6106 44.805H55.0856V39.945H55.6106L55.7156 39.84V39.63L55.6106 39.54H53.9606L53.8706 39.63V39.855L53.9906 39.945H54.5306V44.805H54.0056L53.9006 44.88V45.105L54.0056 45.21H55.6256L55.7156 45.09Z" fill="#000"/>
<path fill-rule="evenodd" clip-rule="evenodd" d="M60.0656 45.06V42.63C60.0656 41.73 59.7206 41.145 58.7606 41.145C58.2806 41.145 57.7706 41.325 57.3956 41.67V41.385L57.2606 41.235H57.0056L56.8706 41.385V45.06L57.0056 45.21H57.2606L57.3956 45.06V42.09C57.7106 41.79 58.2056 41.55 58.6256 41.55C59.3906 41.55 59.5406 42.03 59.5406 42.705V45.045L59.6756 45.195H59.9456L60.0656 45.06Z" fill="#000"/>
<path fill-rule="evenodd" clip-rule="evenodd" d="M63.2303 45.0599V45.0449L63.2003 44.8199L63.1403 44.7749H63.0653C62.9603 44.8049 62.7353 44.8649 62.5553 44.8649C62.3303 44.8649 62.1653 44.8049 62.0603 44.7149C61.9253 44.5799 61.9103 44.3399 61.9103 44.0399V41.6099H62.9003L62.9753 41.5199V41.3249L62.9003 41.2349H61.9103V40.1999L61.8053 40.0649H61.7753H61.7603L61.4903 40.1099L61.3703 40.2599V41.2199H60.8753L60.8003 41.3099V41.5199L60.8753 41.6099H61.3703V43.9649C61.3703 44.4149 61.3853 44.7599 61.6103 44.9999C61.8053 45.1799 62.1503 45.2699 62.4803 45.2699C62.7203 45.2699 62.9903 45.2099 63.1553 45.1499L63.2303 45.0599Z" fill="#000"/>
<path fill-rule="evenodd" clip-rule="evenodd" d="M66.5154 42.7049L66.5004 42.8849H64.2204C64.2804 42.1949 64.7304 41.5649 65.4954 41.5649C66.1854 41.5499 66.5154 42.0749 66.5154 42.7049ZM67.0404 43.0199V42.8699C67.0404 41.8949 66.4854 41.1599 65.5104 41.1599C64.3554 41.1599 63.6504 42.0749 63.6504 43.2449C63.6504 44.4599 64.2804 45.2999 65.5404 45.2999C65.8854 45.2999 66.3954 45.2399 66.7254 45.0749L66.8154 44.9849V44.9249L66.7704 44.7449L66.6804 44.6699L66.6204 44.6849C66.3804 44.7899 65.9454 44.8649 65.5854 44.8649C64.6404 44.8649 64.1904 44.1449 64.1904 43.2749H66.0954H66.8154C67.0254 43.2449 67.0404 43.1999 67.0404 43.0199Z" fill="#000"/>
<path fill-rule="evenodd" clip-rule="evenodd" d="M69.6805 41.265V41.25L69.6205 41.175L69.3805 41.145C68.9605 41.145 68.6155 41.415 68.4505 41.67L68.4355 41.385L68.3005 41.235H68.0455L67.8955 41.385V45.06L68.0455 45.21H68.3005L68.4355 45.06V42.12C68.6455 41.805 68.9905 41.565 69.2905 41.565L69.5455 41.61H69.5605L69.6205 41.535L69.6805 41.265Z" fill="#000"/>
<path fill-rule="evenodd" clip-rule="evenodd" d="M72.8003 43.83C72.6503 44.34 72.2003 44.82 71.5853 44.82C71.0003 44.82 70.4753 44.295 70.4753 43.245C70.4753 42.195 71.0003 41.55 71.7053 41.55C72.1553 41.55 72.5753 41.805 72.7853 42.255V43.83H72.8003ZM73.6853 45.12V44.925L73.5954 44.82H73.5353L73.3703 44.73C73.3403 44.655 73.3403 44.505 73.3403 44.28V41.385L73.2204 41.235H72.9803L72.8303 41.37L72.8153 41.67C72.5453 41.325 72.0953 41.145 71.7053 41.145C70.7453 41.145 69.9653 41.925 69.9653 43.29C69.9653 44.31 70.4453 45.27 71.5703 45.27C72.1253 45.27 72.6654 44.91 72.8454 44.505V44.61C72.8454 44.94 72.9953 45.21 73.3103 45.21H73.6404L73.6853 45.12Z" fill="#000"/>
<path fill-rule="evenodd" clip-rule="evenodd" d="M77.3304 44.955L77.3154 44.895L77.2704 44.73L77.1804 44.655L77.1354 44.685C76.8954 44.79 76.5354 44.88 76.1754 44.88C75.2004 44.88 74.8254 44.025 74.8254 43.185C74.8254 42.18 75.3654 41.535 76.1904 41.535C76.5354 41.535 76.8354 41.655 77.1054 41.76L77.1654 41.79L77.2404 41.7L77.3004 41.55V41.475L77.2254 41.4C76.9704 41.265 76.5504 41.145 76.1904 41.145C74.9754 41.145 74.2554 42.03 74.2554 43.2C74.2554 44.415 74.8404 45.27 76.1454 45.27C76.4904 45.27 76.8804 45.21 77.2104 45.045L77.3304 44.955Z" fill="#000"/>
<path fill-rule="evenodd" clip-rule="evenodd" d="M80.0455 45.0599V45.0449L80.0155 44.8199L79.9555 44.7749H79.8955C79.7905 44.8049 79.5805 44.8649 79.3855 44.8649C79.1455 44.8649 78.9955 44.8049 78.8905 44.7149C78.7555 44.5799 78.7405 44.3399 78.7405 44.0399V41.6099H79.7155L79.8205 41.5199V41.3249L79.7455 41.2349H78.7405V40.1999L78.6355 40.0649H78.6205L78.3355 40.1099L78.2155 40.2599V41.2199H77.7205L77.6455 41.3099V41.5199L77.7355 41.6099H78.2155V43.9649C78.2155 44.4149 78.2155 44.7599 78.4855 44.9999C78.6505 45.1799 79.0105 45.2699 79.3255 45.2699C79.5805 45.2699 79.8505 45.2099 80.0005 45.1499L80.0455 45.0599Z" fill="#000"/>
<path fill-rule="evenodd" clip-rule="evenodd" d="M81.3658 45.0601V41.3851L81.2308 41.2351H80.9758L80.8408 41.3851V45.0601L80.9758 45.2101H81.2308L81.3658 45.0601ZM81.4558 40.3051C81.4558 40.1101 81.3058 39.9751 81.1108 39.9751C80.9158 39.9751 80.7808 40.1101 80.7808 40.3051C80.7808 40.4851 80.9008 40.6201 81.1108 40.6201C81.3058 40.6201 81.4558 40.5001 81.4558 40.3051Z" fill="#000"/>
<path fill-rule="evenodd" clip-rule="evenodd" d="M85.4755 43.23C85.4755 44.04 85.1455 44.88 84.1855 44.88C83.2255 44.88 82.9405 43.995 82.9405 43.2C82.9405 42.435 83.2405 41.55 84.2155 41.55C85.1755 41.55 85.4755 42.405 85.4755 43.23ZM86.0455 43.23C86.0455 42.015 85.4755 41.145 84.2455 41.145C83.0455 41.145 82.4155 42.06 82.4155 43.23C82.4155 44.385 82.9705 45.285 84.1855 45.285C85.3855 45.27 86.0455 44.37 86.0455 43.23Z" fill="#000"/>
<path fill-rule="evenodd" clip-rule="evenodd" d="M90.1704 45.06V42.63C90.1704 41.73 89.8404 41.145 88.8804 41.145C88.4154 41.145 87.8905 41.325 87.5005 41.67L87.4855 41.385L87.3505 41.235H87.0955L86.9604 41.385V45.06L87.0955 45.21H87.3655L87.5005 45.06V42.09C87.8305 41.79 88.3255 41.55 88.7305 41.55C89.4805 41.55 89.6605 42.03 89.6605 42.705V45.045L89.7954 45.195H90.0655L90.1704 45.06Z" fill="#000"/>
<path fill-rule="evenodd" clip-rule="evenodd" d="M96.9503 42.405C96.9503 43.17 96.7554 43.83 96.3054 44.28C95.9004 44.685 95.3603 44.745 94.5353 44.745H93.8153V39.975H94.6853C95.2703 39.975 95.8103 40.065 96.2303 40.41C96.6953 40.815 96.9503 41.58 96.9503 42.405ZM97.5803 42.405C97.5803 41.28 97.1754 40.395 96.4704 39.945C95.9754 39.615 95.4803 39.54 94.3703 39.54H93.4553C93.2903 39.54 93.2153 39.6 93.2153 39.75V45.03C93.2153 45.165 93.2453 45.21 93.4103 45.21H94.7303C95.5553 45.21 96.2903 45.03 96.7553 44.61C97.2803 44.115 97.5803 43.335 97.5803 42.405Z" fill="#000"/>
<path fill-rule="evenodd" clip-rule="evenodd" d="M101.211 42.7049V42.8849H98.9157C98.9907 42.1949 99.4407 41.5649 100.191 41.5649C100.896 41.5499 101.211 42.0749 101.211 42.7049ZM101.751 43.0199V42.8699C101.751 41.8949 101.181 41.1599 100.206 41.1599C99.0507 41.1599 98.3457 42.0749 98.3457 43.2449C98.3457 44.4599 98.9757 45.2999 100.236 45.2999C100.566 45.2999 101.091 45.2399 101.421 45.0749L101.496 44.9849V44.9249L101.436 44.7449L101.361 44.6699L101.316 44.6849C101.046 44.7899 100.641 44.8649 100.281 44.8649C99.3207 44.8649 98.9007 44.1449 98.9007 43.2749H100.791H101.496C101.721 43.2449 101.751 43.1999 101.751 43.0199Z" fill="#000"/>
<path fill-rule="evenodd" clip-rule="evenodd" d="M104.916 44.0701C104.916 43.5751 104.556 43.2301 104.076 43.0201L103.491 42.7801C103.116 42.6151 102.906 42.4651 102.906 42.1201C102.906 41.7751 103.205 41.5201 103.67 41.5201C103.94 41.5201 104.331 41.6101 104.526 41.7151L104.585 41.7301L104.661 41.6551L104.736 41.4151L104.766 41.4001L104.691 41.3251C104.346 41.1601 104.03 41.1001 103.67 41.1001C102.965 41.1001 102.351 41.4901 102.351 42.1501C102.351 42.6451 102.711 42.9601 103.206 43.1551L103.701 43.3651C104.121 43.5301 104.391 43.7251 104.391 44.1001C104.391 44.5501 104.031 44.8201 103.491 44.8201C103.206 44.8201 102.815 44.7151 102.545 44.5951L102.501 44.5651L102.441 44.6251L102.351 44.8951L102.335 44.9251L102.411 45.0001C102.621 45.1051 103.041 45.2401 103.446 45.2401C104.376 45.2701 104.916 44.7751 104.916 44.0701Z" fill="#000"/>
<path fill-rule="evenodd" clip-rule="evenodd" d="M106.401 45.0601V41.3851L106.266 41.2351H106.011L105.876 41.3851V45.0601L106.011 45.2101H106.266L106.401 45.0601ZM106.476 40.3051C106.476 40.1101 106.326 39.9751 106.116 39.9751C105.936 39.9751 105.786 40.1101 105.786 40.3051C105.786 40.4851 105.936 40.6201 106.116 40.6201C106.311 40.6201 106.476 40.5001 106.476 40.3051Z" fill="#000"/>
<path fill-rule="evenodd" clip-rule="evenodd" d="M110.346 44.19C110.106 44.535 109.611 44.775 109.161 44.775C108.246 44.775 107.961 43.92 107.961 43.17C107.961 42.225 108.411 41.55 109.236 41.55C109.701 41.55 110.166 41.85 110.331 42.225V44.19H110.346ZM110.886 45.03V44.19V41.385L110.751 41.235H110.496L110.346 41.37L110.331 41.67C110.076 41.325 109.626 41.145 109.206 41.145C108.051 41.145 107.406 42.105 107.406 43.2C107.406 44.28 107.916 45.21 109.101 45.21C109.536 45.21 110.061 45.015 110.331 44.685V45.075C110.331 45.66 110.226 46.05 110.001 46.26C109.776 46.5 109.461 46.575 109.071 46.575C108.711 46.575 108.396 46.44 108.081 46.305L107.991 46.29L107.916 46.365L107.841 46.575L107.826 46.62L107.901 46.71C108.216 46.86 108.681 46.995 109.056 46.995C109.596 46.995 110.016 46.83 110.301 46.605C110.721 46.29 110.886 45.75 110.886 45.03Z" fill="#000"/>
<path fill-rule="evenodd" clip-rule="evenodd" d="M115.221 45.06V42.63C115.221 41.73 114.876 41.145 113.916 41.145C113.451 41.145 112.911 41.325 112.536 41.67L112.521 41.385L112.386 41.235H112.131L112.011 41.385V45.06L112.131 45.21H112.401L112.536 45.06V42.09C112.851 41.79 113.361 41.55 113.766 41.55C114.516 41.55 114.681 42.03 114.681 42.705V45.045L114.816 45.195H115.071L115.221 45.06Z" fill="#000"/>
<path fill-rule="evenodd" clip-rule="evenodd" d="M60.3656 11.895C60.3656 12.15 60.3206 12.405 60.2156 12.645C60.1256 12.885 59.9606 13.11 59.7356 13.305C59.5106 13.5 59.2406 13.665 58.9106 13.8C58.5806 13.92 58.1906 13.98 57.7256 13.98C57.3956 13.98 57.0806 13.935 56.7956 13.845C56.5106 13.755 56.2706 13.635 56.0606 13.53C55.8506 13.395 55.6706 13.275 55.5356 13.155C55.3856 13.035 55.2956 12.93 55.2356 12.855V11.835H53.8706V15.27H55.2506V14.505C55.3256 14.595 55.4456 14.67 55.5956 14.76C55.7606 14.865 55.9256 14.94 56.1356 15.045C56.3306 15.135 56.5856 15.21 56.8706 15.27C57.1406 15.33 57.4556 15.345 57.8006 15.345C58.4306 15.345 58.9706 15.27 59.4806 15.105C59.9906 14.94 60.4256 14.7 60.7706 14.4C61.1456 14.1 61.4156 13.725 61.6106 13.29C61.8056 12.84 61.9106 12.36 61.9106 11.805C61.9106 10.815 61.5806 10.02 60.9356 9.405C60.3056 8.805 59.3456 8.31 58.0856 7.965C57.5906 7.83 57.1556 7.695 56.8406 7.57501C56.4956 7.45501 56.2256 7.305 56.0306 7.17C55.8356 7.02 55.6856 6.87 55.6106 6.69C55.5356 6.51 55.5056 6.3 55.5056 6.045C55.5056 5.82 55.5506 5.625 55.6706 5.43C55.7756 5.22 55.9256 5.04 56.1356 4.875C56.3456 4.725 56.6006 4.605 56.8706 4.515C57.1706 4.41 57.4856 4.365 57.8456 4.365C58.1606 4.365 58.4306 4.395 58.6706 4.44C58.9106 4.485 59.1506 4.545 59.3306 4.635C59.5106 4.71 59.6756 4.8 59.8256 4.86C59.9906 4.95 60.0956 5.025 60.1856 5.1V5.97H61.5656V3.09H60.1856V3.6C59.9306 3.45 59.6606 3.3 59.2856 3.195C58.9106 3.06 58.4606 3 57.8606 3C57.2906 3 56.7656 3.075 56.3006 3.225C55.8056 3.375 55.3856 3.585 55.0556 3.855C54.6956 4.125 54.4106 4.455 54.2456 4.86C54.0656 5.25 53.9456 5.715 53.9456 6.21C53.9456 6.705 54.0356 7.125 54.2006 7.47C54.3806 7.8 54.6206 8.1 54.8906 8.34C55.1606 8.58 55.5206 8.775 55.9106 8.94C56.3006 9.105 56.7056 9.24 57.1556 9.345C57.7556 9.495 58.2656 9.645 58.6556 9.81C59.0756 9.99 59.4056 10.17 59.6606 10.365C59.9006 10.575 60.0956 10.8 60.2006 11.04C60.3056 11.325 60.3656 11.595 60.3656 11.895Z" fill="#000"/>
<path fill-rule="evenodd" clip-rule="evenodd" d="M71.3007 5.59489V6.50989H72.8607V3.17989H71.3007V3.79489C71.0007 3.58489 70.6407 3.38989 70.1607 3.25489C69.6807 3.10489 69.0657 3.01489 68.2707 3.01489C67.4607 3.01489 66.6957 3.16489 65.9907 3.44989C65.2707 3.73489 64.6407 4.15489 64.1157 4.69489C63.5607 5.21989 63.1407 5.89489 62.8257 6.65989C62.5257 7.42489 62.3457 8.27989 62.3457 9.25489C62.3457 10.1249 62.5257 10.9499 62.8257 11.7149C63.1407 12.4649 63.5607 13.1249 64.1157 13.6649C64.6407 14.2199 65.2707 14.6399 65.9907 14.9399C66.6957 15.2549 67.4607 15.4049 68.2707 15.4049C68.9307 15.4049 69.4707 15.3599 69.9507 15.2549C70.4157 15.1499 70.8357 15.0149 71.1807 14.8649C71.5557 14.7149 71.8557 14.5499 72.1257 14.3549C72.3957 14.1599 72.6507 13.9649 72.8757 13.7849L71.9607 12.4049C71.7507 12.5699 71.5407 12.7349 71.3307 12.8849C71.1057 13.0499 70.8507 13.1999 70.5957 13.3049C70.3107 13.4399 69.9807 13.5299 69.6357 13.6199C69.2457 13.7099 68.8407 13.7249 68.3157 13.7249C67.7457 13.7249 67.1757 13.6199 66.6807 13.4099C66.1557 13.1849 65.7057 12.8849 65.3157 12.5099C64.9257 12.1049 64.6257 11.6249 64.4007 11.0849C64.1757 10.5299 64.0707 9.91489 64.0707 9.23989C64.0707 8.51989 64.1757 7.90489 64.3857 7.33489C64.5957 6.76489 64.9107 6.28489 65.2707 5.90989C65.6607 5.50489 66.1257 5.18989 66.6507 4.99489C67.1757 4.78489 67.7607 4.67989 68.3757 4.67989C69.1707 4.67989 69.7857 4.76989 70.2507 4.96489C70.7307 5.17489 71.0757 5.38489 71.3007 5.59489Z" fill="#000"/>
<path fill-rule="evenodd" clip-rule="evenodd" d="M76.6105 13.8901V9.76504H77.5405L81.1405 15.2701H83.3305V13.8901H82.1905L79.3855 9.76504C79.5955 9.76504 79.8655 9.70504 80.1955 9.60004C80.5255 9.49504 80.8255 9.31504 81.1105 9.07504C81.3955 8.83504 81.6655 8.49004 81.8605 8.08504C82.0855 7.68004 82.1755 7.15504 82.1755 6.51004C82.1755 6.06004 82.1155 5.64004 81.9505 5.22004C81.8005 4.81504 81.5905 4.45504 81.3055 4.15504C81.0205 3.84004 80.6755 3.60004 80.2855 3.42004C79.8655 3.25504 79.4005 3.16504 78.9055 3.16504H73.7905V4.54504H74.9155V13.8901H73.7905V15.2701H77.8255V13.8901H76.6105ZM80.4355 6.51004C80.4355 7.03504 80.3155 7.48504 80.0455 7.84504C79.7755 8.20504 79.3255 8.38504 78.6805 8.38504H76.6105V4.57504H78.6805C79.0105 4.57504 79.2805 4.63504 79.5055 4.75504C79.7455 4.86004 79.9255 5.01004 80.0605 5.19004C80.1805 5.40004 80.2855 5.58004 80.3455 5.82004C80.4205 6.04504 80.4355 6.28504 80.4355 6.51004Z" fill="#000"/>
<path fill-rule="evenodd" clip-rule="evenodd" d="M84.0806 13.8901V15.2701H92.6906V12.495H91.3106V13.8901H86.9456V9.61504H89.7656V8.22004H86.9456V4.54504H91.3106V5.76004H92.6906V3.16504H84.0806V4.54504H85.2206V13.8901H84.0806Z" fill="#000"/>
<path fill-rule="evenodd" clip-rule="evenodd" d="M93.6655 13.8901V15.2701H102.276V12.495H100.896V13.8901H96.5305V9.61504H99.3505V8.22004H96.5305V4.54504H100.896V5.76004H102.276V3.16504H93.6655V4.54504H94.8055V13.8901H93.6655Z" fill="#000"/>
<path fill-rule="evenodd" clip-rule="evenodd" d="M107.196 15.2701V13.8901H106.056V6.21004L112.386 15.2701H114.066V4.54504H115.161V3.16504H111.201V4.54504H112.356V12.09L105.981 3.16504H103.221V4.54504H104.316V13.8901H103.221V15.2701H107.196Z" fill="#000"/>
<path fill-rule="evenodd" clip-rule="evenodd" d="M57.9506 33.9451V28.0801H59.2556L64.4156 35.9401H67.5506V33.9451H65.9156L61.9256 28.0801C62.2256 28.0501 62.6156 27.9601 63.0656 27.8101C63.5006 27.6451 63.9506 27.3901 64.3556 27.0601C64.7906 26.7001 65.1356 26.2351 65.4356 25.6501C65.7356 25.0651 65.8856 24.3151 65.8856 23.4001C65.8856 22.7551 65.7956 22.1551 65.5556 21.5551C65.3456 20.9701 65.0306 20.4601 64.6256 20.0251C64.2206 19.5901 63.7256 19.2451 63.1406 18.9751C62.5556 18.7051 61.9106 18.6001 61.1756 18.6001H53.8706V20.5801H55.4756V33.9451H53.8706V35.9401H59.6606V33.9451H57.9506ZM63.4406 23.4001C63.4406 24.1501 63.2456 24.7801 62.8706 25.2901C62.4956 25.8151 61.8506 26.0701 60.9206 26.0701H57.9506V20.6401H60.9206C61.3856 20.6401 61.7906 20.7301 62.1056 20.8801C62.4356 21.0301 62.7056 21.2551 62.8856 21.5251C63.0806 21.7951 63.2306 22.0951 63.3056 22.4101C63.3956 22.7401 63.4406 23.0701 63.4406 23.4001Z" fill="#000"/>
<path fill-rule="evenodd" clip-rule="evenodd" d="M82.7157 27.3C82.7157 28.155 82.5657 28.965 82.2957 29.745C82.0257 30.51 81.6357 31.2 81.0957 31.815C80.5407 32.43 79.8957 32.895 79.1007 33.255C78.3207 33.6 77.3907 33.795 76.3557 33.795C75.3207 33.795 74.4057 33.6 73.5957 33.255C72.8157 32.895 72.1557 32.415 71.6157 31.815C71.0757 31.2 70.6707 30.51 70.4007 29.745C70.1157 28.965 69.9657 28.14 69.9657 27.3C69.9657 26.445 70.1157 25.635 70.4007 24.84C70.6707 24.06 71.0757 23.355 71.6157 22.755C72.1557 22.14 72.8007 21.66 73.5957 21.3C74.4057 20.955 75.3057 20.76 76.3557 20.76C77.4057 20.76 78.3207 20.955 79.1007 21.3C79.8957 21.66 80.5557 22.14 81.0957 22.755C81.6357 23.355 82.0407 24.06 82.2957 24.84C82.5657 25.635 82.7157 26.445 82.7157 27.3ZM67.4907 27.3C67.4907 28.41 67.6857 29.49 68.0757 30.54C68.4507 31.62 68.9907 32.55 69.7257 33.39C70.4757 34.23 71.3907 34.92 72.4857 35.43C73.5957 35.925 74.8707 36.195 76.3407 36.195C77.7957 36.195 79.1007 35.925 80.2107 35.43C81.3057 34.92 82.2357 34.23 82.9707 33.39C83.7207 32.565 84.2607 31.62 84.6357 30.54C85.0107 29.475 85.2057 28.41 85.2057 27.3C85.2057 26.175 85.0107 25.08 84.6357 24.03C84.2607 22.95 83.7207 22.02 82.9707 21.18C82.2357 20.355 81.3057 19.68 80.2107 19.17C79.1007 18.645 77.8107 18.405 76.3407 18.405C74.8557 18.405 73.5807 18.66 72.4857 19.17C71.3907 19.68 70.4757 20.34 69.7257 21.18C68.9907 22.02 68.4507 22.965 68.0757 24.03C67.6857 25.08 67.4907 26.175 67.4907 27.3Z" fill="#000"/>
<path fill-rule="evenodd" clip-rule="evenodd" d="M101.36 27.3C101.36 28.155 101.225 28.965 100.94 29.745C100.67 30.51 100.265 31.2 99.7104 31.815C99.1854 32.43 98.5254 32.895 97.7304 33.255C96.9354 33.6 96.0204 33.795 94.9704 33.795C93.9504 33.795 93.0354 33.6 92.2404 33.255C91.4454 32.895 90.7854 32.415 90.2454 31.815C89.7204 31.2 89.3004 30.51 89.0304 29.745C88.7454 28.965 88.5954 28.14 88.5954 27.3C88.5954 26.445 88.7454 25.635 89.0304 24.84C89.3004 24.06 89.7204 23.355 90.2454 22.755C90.7704 22.14 91.4454 21.66 92.2404 21.3C93.0354 20.955 93.9504 20.76 94.9704 20.76C96.0204 20.76 96.9204 20.955 97.7304 21.3C98.5254 21.66 99.1854 22.14 99.7104 22.755C100.25 23.355 100.67 24.06 100.94 24.84C101.21 25.635 101.36 26.445 101.36 27.3ZM86.1504 27.3C86.1504 28.41 86.3304 29.49 86.7054 30.54C87.0954 31.62 87.6354 32.55 88.3704 33.39C89.1054 34.23 90.0204 34.92 91.1304 35.43C92.2254 35.925 93.5304 36.195 94.9854 36.195C96.4554 36.195 97.7454 35.925 98.8704 35.43C99.9654 34.92 100.88 34.23 101.6 33.39C102.35 32.565 102.89 31.62 103.28 30.54C103.655 29.475 103.835 28.41 103.835 27.3C103.835 26.175 103.64 25.08 103.28 24.03C102.905 22.95 102.35 22.02 101.6 21.18C100.865 20.355 99.9504 19.68 98.8704 19.17C97.7454 18.645 96.4704 18.405 94.9854 18.405C93.5304 18.405 92.2404 18.66 91.1304 19.17C90.0204 19.68 89.1054 20.34 88.3704 21.18C87.6354 22.02 87.0954 22.965 86.7054 24.03C86.3304 25.08 86.1504 26.175 86.1504 27.3Z" fill="#000"/>
<path fill-rule="evenodd" clip-rule="evenodd" d="M112.385 35.9401V33.9451H110.72V20.5801H113.195V22.9201H115.16V18.6001H103.775V22.9201H105.755V20.5801H108.245V33.9451H106.61V35.9401H112.385Z" fill="#000"/>
<path fill-rule="evenodd" clip-rule="evenodd" d="M16.8055 3.13498H27.0955C26.7505 11.085 27.1855 12.66 22.4305 20.895C18.3505 27.81 16.2355 30.645 16.6555 31.5C17.3605 33.015 20.8255 31.695 21.9055 29.745C23.0155 28.17 22.9555 27.03 24.3655 25.965C24.9355 25.665 25.8955 26.055 26.3905 26.385C29.8105 28.89 25.6705 39.555 27.6055 43.185C27.7255 43.455 28.1005 43.8 28.5055 43.875C29.5855 43.875 29.7655 43.26 30.1105 41.28C30.5905 38.58 30.9955 33.12 31.8355 31.365C32.4655 30.285 33.2305 31.455 33.3655 31.95C34.3855 35.745 33.9355 43.98 36.6505 43.875C37.0705 43.845 37.4755 43.455 37.5355 42.675C37.8205 39.69 36.7405 33.51 36.6055 31.32C36.5605 30.345 37.3255 30.21 37.7005 30.525C39.0805 32.265 39.4255 32.925 40.7905 34.68C42.0505 36.495 42.9805 38.625 44.5705 38.085C46.3855 37.545 41.3005 30.255 40.2505 27.765C40.1605 27.525 40.2955 27.33 40.5655 27.48C43.0705 28.83 44.9305 32.295 46.1905 31.59C47.2855 30.57 41.7205 24.87 40.4755 22.89C39.3655 21.09 37.1005 14.595 37.0255 12.06C36.9655 9.65999 37.1155 6.32998 37.4005 3.10498H44.3905C45.9505 3.10498 47.2405 4.36498 47.2405 5.92498V42.33C47.2405 43.875 45.9655 45.15 44.3905 45.15H16.8355C15.2755 45.15 14.0005 43.875 14.0005 42.33V5.92498C13.9705 4.39498 15.2455 3.13498 16.8055 3.13498Z" fill="#000"/>
<path fill-rule="evenodd" clip-rule="evenodd" d="M34.9106 41.955C34.8806 42.435 34.8057 42.885 34.7307 43.305C34.6407 43.71 34.2506 43.95 33.9506 44.01C31.4606 44.115 31.9557 37.665 31.1907 33.735C31.3707 32.73 31.5956 31.905 31.8356 31.395C32.4656 30.315 33.2306 31.485 33.3657 31.98C34.0707 34.575 34.0856 39.285 34.9106 41.955ZM41.7956 36.285C41.4656 35.775 41.1357 35.25 40.7757 34.71C39.4107 32.955 39.0807 32.295 37.6857 30.555C37.3257 30.24 36.5456 30.375 36.5906 31.35C36.6206 31.74 36.6656 32.265 36.7407 32.865C37.2057 33.525 37.5956 34.26 38.1206 35.1C39.2906 37.005 40.5656 39.72 41.7056 38.715C42.2306 38.325 42.1556 37.425 41.7956 36.285ZM42.4256 28.935C43.4756 30.525 44.1807 31.89 43.6857 32.31C43.3407 32.445 42.9357 32.295 42.5157 31.965C41.5707 30.3 40.6107 28.71 40.2207 27.78C40.1307 27.54 40.2656 27.345 40.5356 27.495C41.2106 27.885 41.8406 28.41 42.4256 28.935ZM16.6107 31.065C16.8207 29.82 18.8757 26.895 22.4307 20.895C26.7506 14.505 27.0207 12.06 27.0957 3.13501H25.8507C25.2507 10.59 25.2507 13.815 20.5857 20.34C16.1307 27.015 13.8656 29.73 14.2256 30.63C14.5406 31.38 15.5157 31.425 16.6107 31.065ZM27.0957 41.265C26.6757 43.11 26.4507 43.65 25.4007 43.605C25.0107 43.53 24.6507 43.155 24.5307 42.885C22.8057 39.165 28.3106 28.62 24.2606 26.07L24.3656 25.98C24.9356 25.68 25.8957 26.07 26.3907 26.4C29.3307 28.545 26.6757 36.72 27.0957 41.265Z" fill="#000"/>
</svg>
