<svg width="130" height="50" viewBox="0 0 130 50" fill="none" xmlns="http://www.w3.org/2000/svg">
<path d="M80.1399 19.565L74.4154 25.2775C74.0804 25.6116 73.891 26.2596 73.9464 26.7303C74.2493 29.3164 73.4045 32.0099 71.4148 33.9916C69.425 35.9761 66.7274 36.8159 64.1346 36.5166C63.6627 36.4614 63.5578 36.104 63.8958 35.7698L67.9393 31.7368C68.2743 31.4026 68.5482 30.7459 68.5482 30.2723V25.2368C68.5482 24.7632 68.1636 24.3796 67.6888 24.3796H62.6431C62.1682 24.3796 61.5098 24.6499 61.1748 24.9869L57.1313 29.02C56.7962 29.3541 56.4379 29.2495 56.3826 28.7817C56.0796 26.1957 56.9244 23.5021 58.9142 21.5205C60.9039 19.5359 63.6015 18.6962 66.1943 18.9954C66.6662 19.0507 67.3159 18.8647 67.6509 18.5276L72.3703 13.8205C72.8335 13.3585 72.8714 12.574 72.4024 12.1207C70.401 10.1884 67.6713 9 64.6648 9C58.518 9 53.5363 13.9687 53.5363 20.0996C53.5363 20.582 53.5684 21.0556 53.6267 21.5234C53.7111 22.1713 53.3266 22.5346 52.6828 22.4416C52.2487 22.3806 51.803 22.3457 51.3514 22.3457C46.1863 22.3457 42 26.5211 42 31.6728C42 36.8246 46.1863 41 51.3514 41H75.4933H75.502H75.7963C78.724 40.9215 81.6314 39.7709 83.8659 37.5423C88.4892 32.931 88.4892 25.4576 83.8659 20.8464C83.2861 20.2681 82.6598 19.7625 82.0014 19.3296C81.4508 18.9693 80.6031 19.103 80.1399 19.565Z" fill="#F15F27"/>
</svg>
