<svg xmlns="http://www.w3.org/2000/svg" width="50" height="50" fill="none" viewBox="0 0 25 24" id="c-language"><rect width="24" height="24" x=".463" fill="url(#paint0_linear_302_4674)" rx="8"></rect><path fill="#fff" fill-rule="evenodd" d="M11.5026 4.16383C11.8485 3.94539 12.2892 3.94539 12.6351 4.16383L18.6436 7.95869C18.9511 8.15296 19.1377 8.49137 19.1377 8.85518V15.1448C19.1377 15.5086 18.9511 15.847 18.6436 16.0413L12.6351 19.8362C12.2892 20.0546 11.8485 20.0546 11.5026 19.8362L5.49412 16.0413C5.18652 15.847 5 15.5086 5 15.1448V8.85518C5 8.49137 5.18652 8.15296 5.49412 7.95869L11.5026 4.16383ZM12.7198 14.128C13.1632 13.996 13.5544 13.7289 13.8386 13.3638L15.78 14.4741C15.2495 15.2647 14.4791 15.8639 13.5822 16.1834C12.6854 16.5029 11.7095 16.5257 10.7988 16.2485C9.88794 15.9712 9.09034 15.4086 8.52355 14.6436C7.95677 13.8787 7.65082 12.9518 7.65082 11.9997C7.65082 11.0477 7.95677 10.1208 8.52355 9.35583C9.09034 8.59086 9.88794 8.02828 10.7988 7.75104C11.7095 7.47381 12.6854 7.49661 13.5822 7.81608C14.4791 8.13554 15.2495 8.73477 15.78 9.52539L13.8386 10.6357C13.5544 10.2706 13.1632 10.0034 12.7198 9.87143C12.2764 9.73945 11.8028 9.74927 11.3652 9.89951C10.9277 10.0498 10.5479 10.3329 10.2791 10.7095C10.0103 11.086 9.86576 11.5371 9.86576 11.9997C9.86576 12.4624 10.0103 12.9135 10.2791 13.29C10.5479 13.6666 10.9277 13.9497 11.3652 14.1C11.8028 14.2502 12.2764 14.2601 12.7198 14.128Z" clip-rule="evenodd"></path><defs><linearGradient id="paint0_linear_302_4674" x1=".463" x2="24.463" y1="12" y2="12" gradientUnits="userSpaceOnUse"><stop stop-color="#23f7dd"></stop><stop offset="1" stop-color="#23f7dd"></stop></linearGradient></defs></svg>