<svg width="114" height="128" viewBox="0 0 114 128" fill="none" xmlns="http://www.w3.org/2000/svg">
<path d="M62.4489 64.0157L65.2177 65.8616C73.5242 71.3992 83.3688 74.4757 94.7517 76.3215C108.288 78.475 113.21 81.5515 113.21 89.5503C113.21 96.3185 108.596 101.548 102.135 101.548C96.2899 101.548 91.3676 97.549 83.6764 88.012C75.37 77.8597 68.6018 74.168 62.4489 70.1686L59.9878 68.6304V71.3992C59.9878 83.3974 62.1413 94.4726 66.1407 105.24C67.6789 109.547 68.9095 113.239 68.9095 115.392C68.9095 121.545 62.7566 127.391 56.6037 127.391C50.7584 127.391 45.5285 122.161 45.5285 116.315C45.5285 112.624 47.0667 107.701 49.2202 101.856C52.9119 92.0114 54.1425 84.6279 54.1425 71.3992V68.6304C43.3749 75.3986 41.2214 76.9368 38.145 79.7056C35.0685 82.7821 34.4532 83.3974 25.5315 93.5496C20.3016 99.3949 17.2251 101.241 12.3028 101.241C5.22695 101.241 0.919922 96.6261 0.919922 90.1656C0.919922 82.1668 6.45753 78.7827 20.3016 76.3215C34.4532 73.5527 39.3755 71.7069 51.989 64.0157C40.2985 56.9399 32.6074 54.7864 22.1474 52.6329C7.07282 49.5564 1.53521 46.1723 1.53521 38.4812C1.53521 32.0206 5.5346 27.0983 11.6875 27.0983C16.6098 27.0983 19.9939 29.5595 26.7621 36.943C36.6068 48.0182 42.452 52.9405 54.1425 59.401V55.4017C54.1425 47.0952 52.6043 37.5583 49.5278 27.406C47.3743 20.9454 46.1437 15.4078 46.1437 11.4084C46.1437 5.56318 51.0661 0.948486 57.219 0.948486C63.3719 0.948486 68.6018 5.87082 68.6018 12.0237C68.6018 15.7155 67.3712 20.3301 65.2177 26.483C61.526 36.3277 59.9878 44.6341 59.9878 52.0176V59.401C68.6018 54.4787 71.9859 52.0176 77.8312 46.48C85.2147 39.0965 94.7517 26.483 101.52 26.483C108.288 26.483 112.903 31.0977 112.903 38.1735C112.903 46.1723 108.903 49.5564 96.9052 51.4023C83.3688 53.5558 77.5235 55.4017 62.4489 64.0157Z" fill="#3076F1"/>
</svg>
